<svg xmlns="http://www.w3.org/2000/svg" viewBox="0 0 71.53 55.56"><defs><style>.cls-1{fill:#cdb380;}</style></defs><title>Zasób 2</title><g id="Warstwa_2" data-name="Warstwa 2"><g id="Warstwa_1-2" data-name="Warstwa 1"><path class="cls-1" d="M10.34,0A4.26,4.26,0,0,0,6.08,4.25V26.46a4.46,4.46,0,0,0,4.48,4.44H11.8v5.29a2.61,2.61,0,0,0,2.59,2.62h.42l1.07,3.88a.82.82,0,0,0,1.49,0l1.07-3.88h.42a2.61,2.61,0,0,0,2.59-2.62V30.9h1.21a4.46,4.46,0,0,0,4.48-4.44V24.91H42.5L39.77,47.13H3.21A3.23,3.23,0,0,0,0,50.36v2a3.21,3.21,0,0,0,3.21,3.21H68.29a3.23,3.23,0,0,0,3.24-3.21v-2a3.25,3.25,0,0,0-3.24-3.23H64L61.28,24.91a4.26,4.26,0,0,0,4.14-4.25V4.25A4.26,4.26,0,0,0,61.17,0Zm0,1.6H61.17a2.65,2.65,0,0,1,2.68,2.64V20.67a2.63,2.63,0,0,1-2.68,2.64H26.36a.83.83,0,0,0-.79.81v2.33a2.87,2.87,0,0,1-2.9,2.87H10.56a2.85,2.85,0,0,1-2.87-2.87V4.25A2.62,2.62,0,0,1,10.34,1.6ZM52.69,5.79A6.14,6.14,0,1,0,58.83,12a6.15,6.15,0,0,0-6.14-6.16Zm0,1.57A4.56,4.56,0,1,1,48.16,12a4.57,4.57,0,0,1,4.53-4.58ZM44.07,24.91H59.65l2.73,22.22h-21Zm-30.7,6h6.51v5.29a1,1,0,0,1-1,1H14.39a1,1,0,0,1-1-1V30.9ZM3.21,48.73H68.29A1.62,1.62,0,0,1,70,50.36v2A1.62,1.62,0,0,1,68.29,54H3.21a1.6,1.6,0,0,1-1.63-1.63v-2a1.6,1.6,0,0,1,1.63-1.63Z"/></g></g></svg>