<svg xmlns="http://www.w3.org/2000/svg" viewBox="0 0 88.78 55"><defs><style>.cls-1{fill:none;stroke:#cdb380;stroke-miterlimit:10;stroke-width:1.5px;}</style></defs><title>Zasób 4</title><g id="Warstwa_2" data-name="Warstwa 2"><g id="Warstwa_3" data-name="Warstwa 3"><path class="cls-1" d="M78.18.75H10.6A9.85,9.85,0,0,0,.75,10.6V44.39a9.85,9.85,0,0,0,9.85,9.85H78.18A9.85,9.85,0,0,0,88,44.39V10.6A9.85,9.85,0,0,0,78.18.75Zm.2,48a6.89,6.89,0,0,1-3.47-.86,4.6,4.6,0,0,0-4.4,0,7.44,7.44,0,0,1-6.93,0,4.6,4.6,0,0,0-4.4,0,7.44,7.44,0,0,1-6.93,0,4.6,4.6,0,0,0-4.4,0,7.44,7.44,0,0,1-6.93,0,4.6,4.6,0,0,0-4.4,0,7.44,7.44,0,0,1-6.93,0,4.6,4.6,0,0,0-4.4,0,6.89,6.89,0,0,1-3.47.86,6.89,6.89,0,0,1-3.47-.86,4.09,4.09,0,0,0-2.2-.56,4.09,4.09,0,0,0-2.2.56,6.89,6.89,0,0,1-3.47.86,4.25,4.25,0,0,1-4.25-4.25A6.89,6.89,0,0,1,7,41a4.6,4.6,0,0,0,0-4.4A7.44,7.44,0,0,1,7,29.7a4.6,4.6,0,0,0,0-4.4,6.89,6.89,0,0,1-.86-3.47A6.89,6.89,0,0,1,7,18.37a4.11,4.11,0,0,0,.56-2.2A4.11,4.11,0,0,0,7,14a6.89,6.89,0,0,1-.86-3.47,4.25,4.25,0,0,1,4.25-4.25,6.89,6.89,0,0,1,3.47.86,4.11,4.11,0,0,0,2.2.56,4.11,4.11,0,0,0,2.2-.56,6.89,6.89,0,0,1,3.47-.86,6.89,6.89,0,0,1,3.47.86,4.6,4.6,0,0,0,4.4,0,7.44,7.44,0,0,1,6.93,0,4.6,4.6,0,0,0,4.4,0,7.44,7.44,0,0,1,6.93,0,4.6,4.6,0,0,0,4.4,0,7.44,7.44,0,0,1,6.93,0,4.6,4.6,0,0,0,4.4,0,7.44,7.44,0,0,1,6.93,0,4.6,4.6,0,0,0,4.4,0,6.89,6.89,0,0,1,3.47-.86,4.25,4.25,0,0,1,4.25,4.25A6.89,6.89,0,0,1,81.77,14a4.09,4.09,0,0,0-.56,2.2,4.09,4.09,0,0,0,.56,2.2,6.89,6.89,0,0,1,.86,3.47,6.89,6.89,0,0,1-.86,3.47,4.6,4.6,0,0,0,0,4.4,7.44,7.44,0,0,1,0,6.93,4.6,4.6,0,0,0,0,4.4,6.89,6.89,0,0,1,.86,3.47A4.25,4.25,0,0,1,78.38,48.74Z"/></g></g></svg>