<svg xmlns="http://www.w3.org/2000/svg" viewBox="0 0 85.22 56.94"><defs><style>.cls-1{fill:none;stroke:#cdb380;stroke-miterlimit:10;stroke-width:1.5px;}</style></defs><title>Zasób 3</title><g id="Warstwa_2" data-name="Warstwa 2"><g id="Warstwa_2-2" data-name="Warstwa 2"><g id="Warstwa_2-3" data-name="Warstwa 2"><path class="cls-1" d="M5.41,34.3S.75,38.41.75,44.38A7.47,7.47,0,0,0,2.8,49.69a3.92,3.92,0,0,0,5.69-.28,4.14,4.14,0,0,0,.75-1c2.33-4,.19-9.42-2.43-12.69C6.72,35.61,5.51,34.21,5.41,34.3Z"/></g><rect class="cls-1" x="5.71" y="16.1" width="79.98" height="12.81" rx="1.14" ry="1.14" transform="translate(13.11 -16.65) rotate(24.01)"/><path class="cls-1" d="M69.67,55.56a1.07,1.07,0,0,1-1.41.54L6.13,28.43A1.07,1.07,0,0,1,5.59,27"/><path class="cls-1" d="M69.67,55.56"/><line class="cls-1" x1="69.67" y1="55.56" x2="75.46" y2="42.77"/><line class="cls-1" x1="5.59" y1="27.02" x2="11.31" y2="14.17"/></g></g></svg>