<svg xmlns="http://www.w3.org/2000/svg" viewBox="0 0 78.88 55.7"><defs><style>.cls-1{fill:#cdb380;}</style></defs><title>Zasób 5</title><g id="Warstwa_2" data-name="Warstwa 2"><g id="Warstwa_4" data-name="Warstwa 4"><path class="cls-1" d="M53.66,7.64a4.71,4.71,0,0,0-3.49.7A4.75,4.75,0,0,0,42.78,5l-.26.19a4.78,4.78,0,0,0-.64-1.36,4.75,4.75,0,0,0-7.69-.22,4.74,4.74,0,0,0-8.46.54L10.27.1A3.18,3.18,0,0,0,8.91,0L.69,1.51A.84.84,0,0,0,.29,3L6.62,8.54a3.18,3.18,0,0,0,1.28.68l16,4.2-.28,1.49a5.45,5.45,0,0,0-1.14.87l-6.29,6.29a5.46,5.46,0,0,0,0,7.72l8.48,8.48V54.87a.84.84,0,0,0,.84.83H49.22a.84.84,0,0,0,.84-.83l.12-15.41a21.21,21.21,0,0,0,3.54-5.14c2.18-4.54,1.21-7.9.92-8.69a4.72,4.72,0,0,0,.81-1.88l2-10.56A4.75,4.75,0,0,0,53.66,7.64Zm-11.21.72a3.07,3.07,0,0,1,3-2.5,3.15,3.15,0,0,1,.58.05A3.07,3.07,0,0,1,48.47,9.5L46.11,22a3.07,3.07,0,0,1-6-1.14ZM34.94,6a3.07,3.07,0,0,1,3-2.5,3.15,3.15,0,0,1,.58.05A3.07,3.07,0,0,1,41,7.09L38.43,20.53h0A3.06,3.06,0,0,1,37,22.6l-4.36-4.36Zm-7.86-.49a3.07,3.07,0,1,1,6,1.14L31.18,16.81l-1-1a5.45,5.45,0,0,0-4.75-1.53ZM8.35,7.6h0a1.49,1.49,0,0,1-.6-.32L4.06,4.05l.4-1.51L9.2,1.7a1.47,1.47,0,0,1,.64,0l.13,0,.75,1.29L9,4.06a.74.74,0,0,0-.27,1l1,1.72Zm2,.54.74-.43a.74.74,0,0,0,.27-1L10.39,5l1.72-1a.74.74,0,0,0,.27-1L12,2.3,25.31,5.8l-1.13,6ZM52.2,33.59a19.43,19.43,0,0,1-3.45,4.93.84.84,0,0,0-.25.6L48.38,54H26.3l0-16.1a.84.84,0,0,0-.25-.59l-8.72-8.72a3.79,3.79,0,0,1,0-5.35l5.74-5.74.54-.54A3.78,3.78,0,0,1,29,17L37.7,25.7l0,0c1.23,1.12,1.8,2.29,1.58,3.22a2,2,0,0,1-1.63,1.39C34.21,31.24,29.63,28,26.76,25a.84.84,0,1,0-1.22,1.15c5.09,5.4,9.83,6.56,12.57,5.84a3.69,3.69,0,0,0,2.83-2.61c.38-1.54-.38-3.3-2.06-4.84l-.69-.69a4.72,4.72,0,0,0,.57-.48,4.74,4.74,0,0,0,7.68,1.45,4.73,4.73,0,0,0,6.82,2.12A10.41,10.41,0,0,1,52.2,33.59Zm3.59-20.71-2,10.56a3.07,3.07,0,1,1-6-1.14l2-10.56a3.07,3.07,0,0,1,3-2.5,3.14,3.14,0,0,1,.58.05A3.07,3.07,0,0,1,55.79,12.88Z"/><path class="cls-1" d="M68.51,22.32l-2.77-.73a.42.42,0,1,0-.21.81l2.77.73h.11a.42.42,0,0,0,.11-.83Z"/><path class="cls-1" d="M66.12,20.13l2.77.73H69a.42.42,0,0,0,.11-.83l-2.77-.73a.42.42,0,1,0-.21.81Z"/><path class="cls-1" d="M68.81,21.18,66,20.45a.42.42,0,1,0-.21.81l2.77.73h.11a.42.42,0,0,0,.11-.83Z"/><path class="cls-1" d="M66.72,17.86l2.77.73h.11a.42.42,0,0,0,.11-.83L66.93,17a.42.42,0,1,0-.21.81Z"/><path class="cls-1" d="M66.42,19l2.77.73h.11a.42.42,0,0,0,.11-.83l-2.77-.73a.42.42,0,1,0-.21.81Z"/><path class="cls-1" d="M76.68,17.59,56.9,12.38,56.57,14l3.36.88-1.54,5.86-3-.79-.33,1.65L74.28,26.7a1.67,1.67,0,0,0,.43.06A2.47,2.47,0,0,0,76,26.37a7.31,7.31,0,0,0,2.86-3.51C79,22,78.68,18.16,76.68,17.59ZM60,21.21l1.54-5.86.92.24-1.54,5.86Zm1.73.46,1.54-5.86.38.1-1.54,5.86Zm1.19.31,1.54-5.86.38.1L63.3,22.07Zm6.61,1.74-5.42-1.43,1.54-5.86,5.42,1.43Zm6.34-3.16-.77,2.93a.42.42,0,0,1-.41.31h-.11a.42.42,0,0,1-.3-.51l.77-2.93a.42.42,0,1,1,.81.21Z"/></g></g></svg>